<svg height="21" viewBox="0 0 21 21" width="21" xmlns="http://www.w3.org/2000/svg"><g fill="#007ab7" fill-rule="evenodd" transform="translate(.5 .5)"><path d="m13.6730579 3c.3596694 0 .7230854.09731396 1.0902479.29194188.3671625.19462791.7380716.4790841 1.1127273.85336856.3746556.37428445.6556473.74482606.8429752 1.11162483.1873278.36679877.2809917.72985469.2809917 1.08916777 0 .32937032-.0636915.59511228-.1910744.79722589-.1061524.16842801-.1836853.28227286-.2325987.34153457l-.0259137.02900704-10.18314047 10.17305156v.022457h-.02247934l-.01123967.0112286-.00842975.0084214-.00280992.0028071-.02247934.0224571h-.02247934v.022457h-.02247934l-.00280991.0168428-.00842976.0056143h-.02247934l-.00842975.0056143-.00280991.0168428h-.02247934v.0112285l-.00249771.0062381-.00749311.0037428-.01248852.0012476h-.02247934v.0224571h-.03371901l-.00842975.0056143-.00280992.0168428h-.02247934l-4.74314049 2.021136-.09272728.0392999-.0983471.0280713-.09834711.0168428-.09272727.0056143h-.08991736l-.10490358-.0199618c-.06993572-.0166349-.13987144-.0399237-.20980716-.0698665-.06993572-.0299427-.1332109-.0698664-.18982553-.119771l-.07992654-.0823426-.01123967-.0112285-.01404958-.0084214-.01966943-.0028071-.00124885-.0124762-.00374655-.0074857c-.01373738-.0024952-.01748394-.0099809-.01748394-.0249523 0 0-.00374655-.0074857-.01123966-.022457l-.01404959-.0168428-.01966942-.0056143v-.0224571l-.00561984-.0056142-.0168595-.0168428v-.0224571l-.05057851-.0919336c-.04495868-.094039-.07305786-.194394-.08429753-.3010651-.01498622-.1422281 0-.2807133.04495868-.4154557 0-.0149714.00374656-.0262.01123967-.0336856l.00842975-.0140357.00280992-.0196499 2.0231405-4.7384413h.02247934v-.0449141h.02247933v-.0224571l.00280992-.0168428.00842975-.0056142h.01123967v-.0224571l.00280992-.0028071.00842975-.0084214.00842976-.0084214.00280991-.0028072v-.022457h.01123967l.00842975-.0056143.00280992-.0168428.04495868-.0449141v-.0224571h.02247934v-.0224571h.02247934v-.022457h.02247934l10.16066116-10.17305155.0440595-.03188904c.0695361-.04910612.1822325-.12456187.3380893-.22636724.1948209-.12725671.464573-.19088507.8092562-.19088507zm-10.09986337 11c-.16699197 0-.29223595.0267584-.37573194.0802752s-.12524398.0802753-.12524398.0802753l-.29603123.6880734-1.77618738 4.1513761 4.80481457-2.0642202c.00555948-.0167987.01482529-.0447964.02965057-.0895929l.02846454-.0860091c.02767386-.0836201.06523124-.1971044.11267214-.340453.11385817-.3440367-.17078725-.867737-.85393624-1.5711009-.34916504-.3363915-.65278681-.5619267-.91086532-.6766056s-.47061375-.1720183-.63760573-.1720183zm10.09986337-10.0343461c-.1798348 0-.3109642.02994275-.3933885.08982827-.0618182.04491413-.1004545.07298547-.1159091.084214l-.0077272.00561427-9.12661161 9.09511226.21285124.0652659c.21214876.074389.42219008.1761476.63012396.3052757.27724518.1721709.55074381.4004844.82049587.6849406.28473829.2844562.51327824.5651695.68561984.84214.1292562.2077279.2311157.4133504.30557851.6168676l.06533058.2028154 9.12661161-9.11756938.0026343-.00789506.0210743-.0631605c.026343-.07895063.0746385-.22369345.1448864-.43422846.1123967-.33685601-.168595-.84214002-.8429752-1.51585204-.3446832-.3443417-.6444077-.57265522-.8991736-.68494056-.2547658-.11228533-.464573-.168428-.6294214-.168428z"/><path d="m18.8347458 5 .7415254-.72340426c.0423729-.05673758.1235876-.17730496.2436441-.36170212.1200565-.18439717.1800847-.43971632.1800847-.76595745 0-.34042553-.0918079-.68439716-.2754237-1.03191489s-.4519774-.69858156-.8050848-1.05319149c-.3531073-.35460993-.7026836-.62056738-1.0487288-.79787234-.3460452-.17730497-.6885593-.26595745-1.0275424-.26595745-.3107344 0-.5614406.05673759-.7521186.17021277-.190678.11347517-.3072034.19858156-.3495763.25531915l-.7415254.72340425c.4237288.02836879.8403955.14893617 1.25.36170213s.8121469.5106383 1.2076271.89361702c0 .0141844.0070622.02836879.0211865.04255319s.0282485.0212766.0423728.0212766c.0141243.01418439.0247176.02836879.0317797.04255319s.0176554.02836879.0317797.04255319c.3954802.39716312.6956214.80141844.9004237 1.21276596.2048023.41134751.3213277.82269503.3495763 1.23404255z"/></g></svg>