<svg height="22" viewBox="0 0 20 22" width="20" xmlns="http://www.w3.org/2000/svg"><g fill="#007ab7" fill-rule="evenodd" transform="translate(0 .474783)"><path d="m13.4190034 0c.2888973 0 .5336575.10031157.7342807.30093471.1671859.16718595.2647111.3594498.2925754.57679153l.0083593.13341439v2.07043082h4.0927121c.2888973 0 .5336575.10031157.7342807.30093471.1671859.16718595.264711.35944979.2925754.57679153l.0083593.13341439v2.07043082c0 .27284747-.1003116.50958277-.3009347.71020592-.167186.16718595-.3650227.26471108-.5935102.29257541l-.1407705.0083593h-17.45421332c-.28889732 0-.53365756-.10031157-.7342807-.30093471-.16718595-.16718596-.26471109-.3594498-.29257541-.57679154l-.0083593-.13341438v-2.07043082c0-.27284747.10031157-.50958278.30093471-.71020592.16718595-.16718595.36502266-.26471109.59351013-.29257541l.14077057-.0083593h4.11678686v-2.07043082c0-.27284747.10031157-.50958278.30093471-.71020592.16718595-.16718595.35944979-.26471109.57679153-.29257541l.13341439-.0083593zm5.1279275 4.09271208h-17.45421332v2.07043082h17.45421332zm-5.1279275-3.08157145h-7.19835833v2.07043082h7.19835833z"/><path d="m6.75029016 17.4542133c.14444866 0 .26482255-.052162.36112165-.1564861.09629911-.104324.14444867-.2206854.14444867-.3490842v-8.73914406h-1.03521541v8.73914406c0 .1283988.05216201.2447602.15648605.3490842.10432403.1043241.22871038.1564861.37315904.1564861z"/><path d="m9.83186161 17.4542133c.12839881 0 .24476019-.052162.34908429-.1564861.104324-.104324.156486-.2206854.156486-.3490842v-8.73914406h-1.03521539v8.73914406c0 .1283988.05216202.2447602.15648605.3490842.10432404.1043241.22871039.1564861.37315905.1564861z"/><path d="m12.9134331 17.4542133c.1283988 0 .2447602-.052162.3490842-.1564861.1043241-.104324.1564861-.2206854.1564861-.3490842v-8.73914406h-1.0352154v8.73914406c0 .1283988.052162.2447602.156486.3490842.104324.1043241.2287104.1564861.3731591.1564861z"/><path d="m14.4542188 20.5357847c.8506421 0 1.5768979-.3009347 2.1787673-.9028041s.9028041-1.3281252.9028041-2.1787673v-9.24471436h-1.0352154v9.24471436c0 .5617448-.2006231 1.0432403-.6018694 1.4444866s-.8827418.6018694-1.4444866.6018694h-9.24471436c-.57779465 0-1.06731512-.2006231-1.4685614-.6018694s-.60186942-.8827418-.60186942-1.4444866v-9.24471436h-1.01114063v9.24471436c0 .8506421.30093471 1.5768979.90280413 2.1787673.60186943.6018694 1.3281252.9028041 2.17876732.9028041z"/></g></svg>